<svg width="50" height="50" viewBox="0 0 50 50" fill="none" xmlns="http://www.w3.org/2000/svg">
<g clip-path="url(#clip0_66_18)">
<path d="M22.9585 45.8333H1.04179C0.720953 45.8333 0.418869 45.6854 0.220953 45.4333C0.023036 45.1792 -0.0477973 44.8521 0.029286 44.5396L1.15429 40.0188C1.72095 37.7708 3.3647 36 5.54804 35.2813L13.9189 32.4917C15.1605 31.9729 15.9355 30.1021 16.0147 27.3438C15.0564 26.4729 13.0001 24.3479 13.0001 22.1688C13.0001 21.4042 12.7439 21.2479 12.7418 21.2458C12.4251 21.1604 12.2585 20.9646 12.1355 20.6583C12.0314 20.3958 11.1251 18.0708 11.1251 16.5C11.1251 16.4167 11.1355 16.3333 11.1564 16.2521C11.2876 15.7125 11.6043 15.1708 12.0814 14.8417C12.0939 14.5917 12.1085 14.3146 12.1251 14.0063C12.1772 12.9771 12.2501 11.6042 12.2501 9.89583C12.2501 5.9875 17.0293 0 22.9168 0C28.2439 0 30.823 2.8375 31.2501 4.67083C32.5522 5.39167 33.6876 6.58125 33.6876 9.89583V14.8479C34.2043 15.2042 34.523 15.775 34.6564 16.1688C34.6918 16.275 34.7085 16.3875 34.7085 16.5C34.7085 17.075 34.2418 17.5833 33.6668 17.5833C33.1439 17.5833 32.7126 17.2333 32.6376 16.7396C32.598 16.6667 32.548 16.5938 32.5147 16.5688C31.9418 16.5688 31.6022 16.1375 31.6022 15.5625V9.89583C31.6022 7.17708 30.7293 6.7375 30.2085 6.47708C29.8939 6.31667 29.2293 5.98333 29.2293 5.1875C29.1918 4.56042 27.4376 2.08333 22.9168 2.08333C17.9585 2.08333 14.3335 7.22083 14.3335 9.89583C14.3335 11.65 14.2605 13.0583 14.2022 14.1146C14.173 14.7167 14.146 15.2021 14.146 15.5625C14.146 16.1021 13.7355 16.5458 13.2105 16.6C13.2439 17.4542 13.671 18.7938 13.9439 19.5417C14.5022 19.9375 15.0835 20.7458 15.0835 22.1667C15.0835 23.3417 16.4543 25.0146 17.7293 26.0729C17.9668 26.2708 18.1043 26.5646 18.1043 26.875C18.1043 30.8292 16.8772 33.5167 14.648 34.4417L6.20429 37.2604C4.69595 37.7583 3.5647 38.9792 3.17512 40.5271L2.37512 43.75H22.9585C23.5335 43.75 24.0001 44.2167 24.0001 44.7917C24.0001 45.3667 23.5335 45.8333 22.9585 45.8333Z" fill="white"/>
<path d="M37.5 50.0002C37.3625 50.0002 37.225 49.9731 37.0958 49.9169C36.6 49.7106 25 44.696 25 34.4502V25.7439C25 25.2981 25.2854 24.9002 25.7083 24.7564L37.1667 20.8877C37.3833 20.8148 37.6187 20.8148 37.8333 20.8877L49.2917 24.7564C49.7146 24.8981 50 25.296 50 25.7439V34.4502C50 44.696 38.4 49.7106 37.9042 49.9189C37.775 49.9731 37.6375 50.0002 37.5 50.0002ZM27.0833 26.4919V34.4502C27.0833 42.3356 35.5312 46.8627 37.5 47.8127C39.4667 46.8606 47.9167 42.3169 47.9167 34.4502V26.4919L37.5 22.9752L27.0833 26.4919Z" fill="white"/>
<path d="M36.4583 39.5835C36.4396 39.5835 36.4187 39.5835 36.4021 39.5814C36.1041 39.5648 35.8312 39.4231 35.6458 39.1919L31.4791 33.9835C31.1208 33.5335 31.1916 32.8794 31.6416 32.5189C32.0937 32.1606 32.7479 32.2356 33.1062 32.6814L36.5437 36.9814L43.0125 30.5127C43.4187 30.1064 44.0792 30.1064 44.4854 30.5127C44.8917 30.9189 44.8917 31.5794 44.4854 31.9856L37.1937 39.2773C37 39.4752 36.7333 39.5835 36.4583 39.5835Z" fill="white"/>
</g>
<defs>
<clipPath id="clip0_66_18">
<rect width="50" height="50" fill="white"/>
</clipPath>
</defs>
</svg>
