<svg width="50" height="50" viewBox="0 0 50 50" fill="none" xmlns="http://www.w3.org/2000/svg">
<g clip-path="url(#clip0_66_16)">
<path d="M38.1721 22.6815C36.1112 22.6815 34.1722 23.2118 32.4832 24.1423C30.9538 22.9486 29.228 22.0074 27.3285 21.33C28.9066 19.4546 30.0168 17.2559 30.563 14.8955C31.1896 12.1874 31.0139 9.40478 30.0679 7.06035C28.4167 2.96797 24.7007 0.581543 19.8726 0.512891L19.856 0.512695L19.8394 0.512891C15.0112 0.581543 11.2952 2.96797 9.64394 7.06025C8.69794 9.40478 8.52216 12.1873 9.14882 14.8955C9.69492 17.2557 10.805 19.4542 12.3828 21.3294C8.35371 22.7679 5.11064 25.3914 2.93252 28.9989C0.641109 32.7941 -0.358305 37.5933 0.118063 42.5124C0.152731 42.8706 0.350191 43.1932 0.653512 43.3869C6.28379 46.9841 12.0158 49.0111 17.6903 49.4117C18.395 49.4615 19.1002 49.4863 19.8069 49.4863C24.7735 49.4863 29.7836 48.2584 34.7296 45.826C35.8193 46.1581 36.9751 46.3375 38.172 46.3375C44.6939 46.3375 49.9999 41.0315 49.9999 34.5096C49.9999 27.9876 44.694 22.6815 38.1721 22.6815ZM11.8173 7.9373C13.1151 4.7207 15.9694 2.9168 19.8559 2.85664C23.7423 2.9168 26.5965 4.7207 27.8943 7.9373C29.5274 11.9848 28.2164 17.2428 24.7062 20.7237C23.0704 22.3462 21.4385 23.1688 19.8559 23.1688C18.2732 23.1688 16.6413 22.3462 15.0054 20.7237C11.4952 17.2427 10.1843 11.9848 11.8173 7.9373ZM2.40254 41.719C1.73632 32.6525 6.32187 25.4805 14.235 23.1946C16.0562 24.7332 17.9428 25.5125 19.856 25.5125C21.7691 25.5125 23.6557 24.7331 25.4769 23.1945C27.3165 23.7245 28.9839 24.5146 30.4548 25.5533C27.9391 27.724 26.3441 30.934 26.3441 34.5096C26.3441 38.736 28.5728 42.4512 31.9163 44.5433C21.9965 48.8162 12.3169 47.8866 2.40254 41.719ZM38.1721 43.9938C32.9425 43.9938 28.6878 39.7392 28.6878 34.5096C28.6878 29.2799 32.9424 25.0253 38.1721 25.0253C43.4018 25.0253 47.6562 29.2799 47.6562 34.5096C47.6562 39.7392 43.4017 43.9938 38.1721 43.9938ZM43.0038 31.335L39.8293 34.5096L43.0038 37.6841C43.4614 38.1418 43.4614 38.8837 43.0038 39.3414C42.775 39.5702 42.4751 39.6847 42.1752 39.6847C41.8753 39.6847 41.5754 39.5702 41.3466 39.3414L38.1721 36.1669L34.9976 39.3414C34.7687 39.5702 34.4687 39.6847 34.1689 39.6847C33.8691 39.6847 33.5691 39.5702 33.3403 39.3414C32.8827 38.8837 32.8827 38.1418 33.3403 37.6841L36.5148 34.5096L33.3403 31.3351C32.8827 30.8773 32.8827 30.1354 33.3403 29.6777C33.7979 29.2202 34.5399 29.2201 34.9977 29.6777L38.1722 32.8522L41.3467 29.6776C41.8044 29.2201 42.5463 29.22 43.004 29.6776C43.4614 30.1354 43.4614 30.8773 43.0038 31.335Z" fill="white"/>
</g>
<defs>
<clipPath id="clip0_66_16">
<rect width="50" height="50" fill="white"/>
</clipPath>
</defs>
</svg>
