<svg width="50" height="50" viewBox="0 0 50 50" fill="none" xmlns="http://www.w3.org/2000/svg">
<g clip-path="url(#clip0_66_12)">
<path d="M3.71032 45.8417H29.0193C32.3125 50.3546 38.655 51.3304 43.168 48.0982C47.6809 44.8049 48.6567 38.4624 45.4245 33.9496C43.168 30.8394 39.3259 29.2536 35.4838 29.9245C33.2884 26.5093 29.9341 24.0089 26.0311 22.7892C31.9466 19.7399 34.2641 12.4217 31.1539 6.50601C28.0437 0.590325 20.7864 -1.72702 14.8707 1.38319C8.95501 4.49341 6.69866 11.7507 9.74788 17.6663C10.9066 19.8617 12.6752 21.6303 14.8707 22.7891C7.6134 25.0455 2.67358 31.754 2.67358 39.3161V44.7438C2.67358 45.3537 3.16145 45.8417 3.71032 45.8417ZM35.2398 32.1808C39.5088 31.0831 43.8389 33.7054 44.9366 37.9745C46.0343 42.2436 43.412 46.5734 39.1429 47.6713C34.1421 48.891 29.2633 45.0489 29.2633 39.8651C29.2633 36.2059 31.7026 33.0347 35.2398 32.1808ZM10.5407 12.1776C10.5407 6.68888 14.9317 2.23693 20.4204 2.23693C25.9091 2.23693 30.361 6.62788 30.361 12.1166C30.361 17.6053 25.9701 22.0572 20.4204 22.0572C14.9927 22.0572 10.5407 17.6054 10.5407 12.1776ZM4.80806 39.3161C4.80806 30.9611 11.5775 24.1917 19.9935 24.1307H21.0302C25.9091 24.1307 30.544 26.5092 33.4104 30.5341C29.7513 32.0587 27.1898 35.7179 27.1898 39.8649C27.1898 41.0846 27.4338 42.4262 27.9217 43.707H4.80806V39.3161Z" fill="white"/>
<path d="M33.1053 40.9632H36.1546V44.0125C36.1546 44.6224 36.6425 45.1103 37.2524 45.1103C37.8623 45.1103 38.3501 44.6224 38.3501 44.0125V40.9632H41.3995C42.0093 40.9632 42.4972 40.4753 42.4972 39.8655C42.4972 39.2556 42.0093 38.7677 41.3995 38.7677H38.3501V35.7794C38.3501 35.1695 37.8623 34.6816 37.2524 34.6816C36.6425 34.6816 36.1546 35.1695 36.1546 35.7794V38.7677H33.1053C32.4954 38.7677 32.0076 39.2556 32.0076 39.8655C32.0076 40.4753 32.4954 40.9632 33.1053 40.9632Z" fill="white"/>
</g>
<defs>
<clipPath id="clip0_66_12">
<rect width="50" height="50" fill="white"/>
</clipPath>
</defs>
</svg>
