<svg width="50" height="50" viewBox="0 0 50 50" fill="none" xmlns="http://www.w3.org/2000/svg">
<path d="M46.6719 31.1132L34.1719 17.4413C34.0657 17.3245 33.9266 17.2426 33.773 17.2064C33.6194 17.1702 33.4584 17.1813 33.3112 17.2384C33.164 17.2955 33.0376 17.3959 32.9486 17.5262C32.8596 17.6566 32.8121 17.8108 32.8125 17.9687V24.2187H16.4062C16.199 24.2187 16.0003 24.301 15.8538 24.4475C15.7073 24.594 15.625 24.7927 15.625 24.9999V30.0194L4.96484 18.3593L15.625 6.69914V11.7187C15.625 11.9259 15.7073 12.1246 15.8538 12.2711C16.0003 12.4176 16.199 12.4999 16.4062 12.4999H38.2812C38.4884 12.4999 38.6872 12.4176 38.8337 12.2711C38.9802 12.1246 39.0625 11.9259 39.0625 11.7187C39.0625 11.5115 38.9802 11.3128 38.8337 11.1662C38.6872 11.0197 38.4884 10.9374 38.2812 10.9374H17.1875V4.68742C17.1879 4.52957 17.1404 4.37531 17.0514 4.24496C16.9624 4.1146 16.836 4.01427 16.6888 3.95718C16.5416 3.90009 16.3806 3.88892 16.227 3.92514C16.0734 3.96136 15.9343 4.04327 15.8281 4.16008L3.32812 17.832C3.19636 17.976 3.12329 18.1641 3.12329 18.3593C3.12329 18.5545 3.19636 18.7426 3.32812 18.8866L15.8281 32.5585C15.9343 32.6753 16.0734 32.7572 16.227 32.7934C16.3806 32.8297 16.5416 32.8185 16.6888 32.7614C16.836 32.7043 16.9624 32.604 17.0514 32.4736C17.1404 32.3433 17.1879 32.189 17.1875 32.0312V25.7812H33.5937C33.8009 25.7812 33.9997 25.6989 34.1462 25.5523C34.2927 25.4058 34.375 25.2071 34.375 24.9999V19.9804L45.0352 31.6405L34.375 43.3007V38.2812C34.375 38.074 34.2927 37.8753 34.1462 37.7287C33.9997 37.5822 33.8009 37.4999 33.5937 37.4999H11.7187C11.5115 37.4999 11.3128 37.5822 11.1663 37.7287C11.0198 37.8753 10.9375 38.074 10.9375 38.2812C10.9375 38.4884 11.0198 38.6871 11.1663 38.8336C11.3128 38.9801 11.5115 39.0624 11.7187 39.0624H32.8125V45.3124C32.813 45.4698 32.8609 45.6234 32.9502 45.753C33.0394 45.8826 33.1657 45.9823 33.3125 46.039C33.4015 46.0762 33.4972 46.0948 33.5937 46.0937C33.7025 46.0939 33.8101 46.0714 33.9096 46.0277C34.0092 45.984 34.0985 45.92 34.1719 45.8398L46.6719 32.1679C46.8036 32.0239 46.8767 31.8357 46.8767 31.6405C46.8767 31.4453 46.8036 31.2572 46.6719 31.1132Z" fill="white"/>
</svg>
