<svg width="50" height="50" viewBox="0 0 50 50" fill="none" xmlns="http://www.w3.org/2000/svg">
<path d="M25.0001 48.6483C21.8939 48.6515 18.8178 48.0413 15.948 46.8529C13.0783 45.6644 10.4715 43.921 8.27708 41.7226C8.14985 41.5954 8.07837 41.4228 8.07837 41.2429C8.07837 41.063 8.14985 40.8904 8.27708 40.7632C8.40431 40.6359 8.57688 40.5645 8.75681 40.5645C8.93674 40.5645 9.10931 40.6359 9.23654 40.7632C12.9885 44.5177 17.9567 46.8105 23.248 47.2296C28.5393 47.6486 33.8065 46.1664 38.1027 43.0493C42.3988 39.9322 45.4421 35.3848 46.6854 30.2246C47.9287 25.0644 47.2903 19.63 44.8852 14.8983C44.8196 14.7408 44.816 14.5643 44.8752 14.4043C44.9343 14.2443 45.0518 14.1126 45.2041 14.0356C45.3563 13.9586 45.5321 13.9421 45.696 13.9893C45.8599 14.0365 45.9999 14.144 46.0879 14.2902C47.9192 17.8958 48.7954 21.9107 48.6326 25.9514C48.4699 29.9921 47.2737 33.9236 45.1583 37.3702C43.0429 40.8168 40.079 43.6633 36.5498 45.6378C33.0206 47.6123 29.044 48.6488 25.0001 48.6483Z" fill="white"/>
<path d="M4.51362 36.0814C4.38884 36.081 4.26661 36.0461 4.16046 35.9805C4.05432 35.9149 3.96841 35.8212 3.91227 35.7097C1.34145 30.687 0.651186 24.9107 1.96611 19.4236C3.28104 13.9366 6.51449 9.10053 11.0826 5.78862C15.6508 2.47672 21.2525 0.907271 26.8764 1.36365C32.5003 1.82004 37.7757 4.27218 41.7501 8.27731C41.8773 8.40454 41.9488 8.5771 41.9488 8.75704C41.9488 8.93697 41.8773 9.10953 41.7501 9.23677C41.6229 9.364 41.4503 9.43548 41.2704 9.43548C41.0904 9.43548 40.9179 9.364 40.7906 9.23677C37.0442 5.4439 32.0628 3.1189 26.7495 2.68321C21.4361 2.24753 16.1425 3.73002 11.8283 6.86193C7.51404 9.99384 4.46473 14.5679 3.23313 19.7548C2.00152 24.9418 2.66914 30.3984 5.11497 35.1354C5.19511 35.295 5.20883 35.4798 5.15312 35.6495C5.09741 35.8191 4.97681 35.9598 4.81767 36.0408C4.72044 36.0761 4.61671 36.09 4.51362 36.0814Z" fill="white"/>
<path d="M41.2163 9.45988H35.8109C35.6317 9.45988 35.4599 9.3887 35.3332 9.26198C35.2064 9.13527 35.1353 8.96341 35.1353 8.78421C35.1353 8.60501 35.2064 8.43315 35.3332 8.30643C35.4599 8.17972 35.6317 8.10853 35.8109 8.10853H40.5407V3.3788C40.5407 3.1996 40.6118 3.02774 40.7386 2.90103C40.8653 2.77431 41.0371 2.70312 41.2163 2.70312C41.3955 2.70312 41.5674 2.77431 41.6941 2.90103C41.8208 3.02774 41.892 3.1996 41.892 3.3788V8.78421C41.892 8.96341 41.8208 9.13527 41.6941 9.26198C41.5674 9.3887 41.3955 9.45988 41.2163 9.45988Z" fill="white"/>
<path d="M8.78383 47.3316C8.60463 47.3316 8.43277 47.2604 8.30606 47.1337C8.17934 47.0069 8.10815 46.8351 8.10815 46.6559V41.2167C8.10815 41.0375 8.17934 40.8656 8.30606 40.7389C8.43277 40.6122 8.60463 40.541 8.78383 40.541H14.1892C14.3684 40.541 14.5403 40.6122 14.667 40.7389C14.7937 40.8656 14.8649 41.0375 14.8649 41.2167C14.8649 41.3959 14.7937 41.5678 14.667 41.6945C14.5403 41.8212 14.3684 41.8924 14.1892 41.8924H9.45951V46.6221C9.46409 46.7136 9.45 46.8051 9.4181 46.8911C9.38621 46.977 9.33716 47.0555 9.27396 47.1219C9.21075 47.1882 9.13471 47.241 9.05045 47.2771C8.96619 47.3131 8.87548 47.3317 8.78383 47.3316Z" fill="white"/>
<path d="M24.3243 38.5134C21.6516 38.5134 19.0389 37.7208 16.8166 36.2359C14.5943 34.751 12.8623 32.6405 11.8395 30.1712C10.8166 27.702 10.549 24.9849 11.0705 22.3635C11.5919 19.7421 12.8789 17.3342 14.7688 15.4444C16.6587 13.5545 19.0666 12.2674 21.688 11.746C24.3093 11.2246 27.0264 11.4922 29.4957 12.515C31.965 13.5378 34.0755 15.2699 35.5604 17.4921C37.0453 19.7144 37.8378 22.3271 37.8378 24.9998C37.8378 26.7745 37.4883 28.5317 36.8092 30.1712C36.1301 31.8108 35.1347 33.3005 33.8798 34.5553C32.625 35.8102 31.1352 36.8056 29.4957 37.4847C27.8562 38.1638 26.0989 38.5134 24.3243 38.5134ZM24.3243 12.8377C21.9189 12.8377 19.5674 13.551 17.5674 14.8874C15.5673 16.2238 14.0085 18.1232 13.0879 20.3456C12.1674 22.5679 11.9266 25.0133 12.3958 27.3726C12.8651 29.7318 14.0235 31.8989 15.7244 33.5998C17.4253 35.3007 19.5924 36.459 21.9516 36.9283C24.3108 37.3976 26.7562 37.1567 28.9786 36.2362C31.2009 35.3157 33.1004 33.7568 34.4368 31.7568C35.7732 29.7567 36.4865 27.4053 36.4865 24.9998C36.4865 21.7742 35.2051 18.6807 32.9243 16.3999C30.6434 14.1191 27.5499 12.8377 24.3243 12.8377Z" fill="white"/>
<path d="M34.0472 33.1079C32.9141 31.6 31.4458 30.3763 29.7583 29.5335C28.0708 28.6907 26.2105 28.252 24.3242 28.252C22.438 28.252 20.5777 28.6907 18.8902 29.5335C17.2027 30.3763 15.7344 31.6 14.6013 33.1079L13.5134 32.3038C14.7722 30.6255 16.4044 29.2633 18.2808 28.3251C20.1572 27.3869 22.2263 26.8984 24.3242 26.8984C26.4221 26.8984 28.4912 27.3869 30.3677 28.3251C32.2441 29.2633 33.8763 30.6255 35.135 32.3038L34.0472 33.1079Z" fill="white"/>
<path d="M24.3243 28.2434C23.3535 28.2448 22.4042 27.958 21.5964 27.4195C20.7887 26.881 20.1589 26.115 19.7868 25.2184C19.4147 24.3217 19.317 23.3349 19.506 22.3827C19.6951 21.4305 20.1624 20.5558 20.8489 19.8694C21.5353 19.1829 22.41 18.7156 23.3622 18.5265C24.3144 18.3375 25.3012 18.4352 26.1979 18.8073C27.0945 19.1794 27.8605 19.8092 28.399 20.6169C28.9375 21.4247 29.2243 22.374 29.2229 23.3448C29.2211 24.6434 28.7045 25.8884 27.7862 26.8067C26.8679 27.725 25.6229 28.2416 24.3243 28.2434ZM24.3243 19.7907C23.6211 19.7894 22.9333 19.9967 22.3479 20.3864C21.7626 20.7761 21.306 21.3307 21.0359 21.98C20.7659 22.6293 20.6946 23.3441 20.8309 24.034C20.9673 24.7238 21.3053 25.3578 21.802 25.8555C22.2988 26.3532 22.9321 26.6924 23.6217 26.83C24.3113 26.9677 25.0262 26.8977 25.676 26.6289C26.3258 26.3601 26.8813 25.9046 27.2721 25.32C27.663 24.7354 27.8716 24.048 27.8716 23.3448C27.8716 22.4034 27.4981 21.5004 26.833 20.8341C26.1679 20.1677 25.2657 19.7925 24.3243 19.7907Z" fill="white"/>
</svg>
