<svg width="50" height="50" viewBox="0 0 50 50" fill="none" xmlns="http://www.w3.org/2000/svg">
<g clip-path="url(#clip0_66_2)">
<path d="M38.9152 24.9987C38.9152 17.3327 32.6785 11.0961 25.0126 11.0961C17.3467 11.0961 11.11 17.3327 11.11 24.9987C11.11 32.6647 17.3467 38.9015 25.0126 38.9015C32.6785 38.9015 38.9152 32.6647 38.9152 24.9987ZM18.1236 34.2747V32.1628C18.1236 30.7453 19.406 29.5921 20.9822 29.5921H29.043C30.6177 29.5921 31.8988 30.7453 31.8988 32.1628V34.2768C29.9741 35.7091 27.5907 36.5577 25.0125 36.5577C22.4344 36.5577 20.0487 35.7083 18.1235 34.2747H18.1236ZM22.4253 21.6493C22.4253 20.2227 23.586 19.062 25.0126 19.062C26.4393 19.062 27.5999 20.2227 27.5999 21.6493C27.5999 23.2362 26.7972 25.4712 25.0126 25.4712C23.0577 25.4712 22.4253 22.8963 22.4253 21.6493ZM13.4537 24.9987C13.4537 18.6251 18.6391 13.4398 25.0126 13.4398C31.3862 13.4398 36.5714 18.6251 36.5714 24.9987C36.5714 27.6087 35.7015 30.019 34.237 31.956C34.1218 29.3418 31.8367 27.2482 29.043 27.2482H27.1733C28.9849 26.2034 29.9437 23.8748 29.9437 21.6492C29.9437 18.9302 27.7317 16.7182 25.0126 16.7182C22.2936 16.7182 20.0816 18.9302 20.0816 21.6492C20.0816 23.8748 21.0404 26.2034 22.852 27.2482H20.9823C18.1883 27.2482 15.9026 29.3398 15.7855 31.9524C14.3226 30.016 13.4537 27.6071 13.4537 24.9987ZM49.2108 24.9987C49.2108 31.4681 46.6918 37.5497 42.118 42.1235C37.5429 46.6986 31.4613 49.2183 24.9933 49.2183C24.3461 49.2183 23.8214 48.6936 23.8214 48.0464C23.8214 47.3992 24.3461 46.8745 24.9933 46.8745C30.8352 46.8745 36.3283 44.5986 40.4608 40.4662C44.5919 36.3352 46.8671 30.842 46.8671 24.9987C46.8671 19.1555 44.5919 13.6623 40.4608 9.53115C31.9319 1.00234 18.0545 1.00244 9.52581 9.53115C9.28841 9.76855 9.05696 10.0121 8.8305 10.2601H10.6875C11.3347 10.2601 11.8594 10.7848 11.8594 11.4319C11.8594 12.0791 11.3347 12.6038 10.6875 12.6038H6.35813C5.71097 12.6038 5.18626 12.0791 5.18626 11.4319V7.10527C5.18626 6.45801 5.71097 5.9334 6.35813 5.9334C7.0053 5.9334 7.53001 6.45801 7.53001 7.10527V8.21934C7.64183 8.10313 7.75462 7.98789 7.86858 7.87383C12.4422 3.3001 18.5241 0.78125 24.9933 0.78125C31.4625 0.78125 37.5442 3.3001 42.118 7.87393C46.6918 12.4478 49.2108 18.5294 49.2108 24.9987ZM19.8611 46.4242C20.3205 46.8838 20.3205 47.6283 19.8611 48.0879C19.4016 48.5475 18.6569 48.5475 18.1974 48.0879C17.7379 47.6283 17.7378 46.8838 18.1974 46.4242C18.657 45.9646 19.4016 45.9646 19.8611 46.4242ZM14.4908 44.3592C14.8175 44.9211 14.6237 45.6408 14.0617 45.9675C13.497 46.2913 12.7801 46.0977 12.4534 45.5356C12.1296 44.9737 12.3206 44.254 12.8853 43.9301C13.4472 43.6034 14.1669 43.7972 14.4908 44.3592H14.4908ZM9.84036 40.9765C10.0065 41.6049 9.63548 42.2498 9.00716 42.4186C8.37874 42.5848 7.73382 42.2138 7.5677 41.5854C7.39886 40.957 7.76976 40.3121 8.39817 40.146C9.02649 39.9771 9.67151 40.348 9.84036 40.9765ZM6.21966 36.506C6.21966 37.1564 5.69368 37.6824 5.04319 37.6824C4.3927 37.6824 3.86673 37.1564 3.86673 36.506C3.86673 35.8555 4.39544 35.3295 5.04319 35.3295C5.69095 35.3295 6.21966 35.8555 6.21966 36.506ZM3.88323 31.2492C3.71438 31.8775 3.06946 32.2485 2.44104 32.0824C1.81536 31.9136 1.44173 31.2687 1.61058 30.6402C1.77942 30.0118 2.42435 29.6409 3.05003 29.8098C3.67845 29.9759 4.05208 30.6209 3.88323 31.2492ZM1.37806 25.998C0.816142 25.6741 0.622294 24.9544 0.94622 24.3925C1.27288 23.8277 1.99261 23.6368 2.55452 23.9606C3.11644 24.2846 3.31019 25.0043 2.98362 25.5689C2.65979 26.1309 1.93997 26.3219 1.37806 25.998ZM1.92337 19.8472C1.4638 19.3876 1.4638 18.643 1.92337 18.1835C2.38294 17.724 3.12757 17.724 3.58704 18.1835C4.04651 18.6431 4.04651 19.3877 3.58704 19.8472C3.12747 20.3067 2.38284 20.3067 1.92337 19.8472Z" fill="white"/>
</g>
<defs>
<clipPath id="clip0_66_2">
<rect width="50" height="50" fill="white"/>
</clipPath>
</defs>
</svg>
