<svg width="50" height="50" viewBox="0 0 50 50" fill="none" xmlns="http://www.w3.org/2000/svg">
<g clip-path="url(#clip0_66_25)">
<path d="M40 20C45.5143 20 50 15.5143 50 10C50 4.48568 45.5143 0 40 0C35.9957 0 32.5431 2.37101 30.9477 5.7784L28.2699 4.79004C28.3016 4.58496 28.3333 4.37988 28.3333 4.16667C28.3333 1.8693 26.464 0 24.1667 0C21.8693 0 20 1.8693 20 4.16667C20 6.46403 21.8693 8.33333 24.1667 8.33333C25.6592 8.33333 26.9609 7.53743 27.6965 6.35498L30.3699 7.34172C30.1351 8.1901 30 9.07837 30 10C30 11.0917 30.1815 12.1399 30.5066 13.1242L21.3416 17.0085C19.6635 13.8359 16.3326 11.6667 12.5 11.6667C11.2581 11.6667 10.0732 11.9051 8.97502 12.3201L6.66992 7.47599C7.67415 6.71427 8.33333 5.52083 8.33333 4.16667C8.33333 1.8693 6.46403 0 4.16667 0C1.8693 0 0 1.8693 0 4.16667C0 6.46403 1.8693 8.33333 4.16667 8.33333C4.51335 8.33333 4.84578 8.2784 5.16846 8.19743L7.4707 13.0367C4.50317 14.7734 2.5 17.9867 2.5 21.6667C2.5 25.1233 4.26351 28.1742 6.93685 29.9707L5.4126 32.7108C5.01587 32.5859 4.60327 32.5 4.16667 32.5C1.8693 32.5 0 34.3693 0 36.6667C0 38.964 1.8693 40.8333 4.16667 40.8333C6.46403 40.8333 8.33333 38.964 8.33333 36.6667C8.33333 35.4049 7.75757 34.2859 6.8693 33.5217L8.39681 30.776C9.65006 31.3432 11.0368 31.6667 12.5 31.6667C14.7868 31.6667 16.8901 30.8866 18.5767 29.5898L21.8567 33.1982C20.1933 34.9849 19.1667 37.3718 19.1667 40C19.1667 40.5098 19.2175 41.0067 19.2908 41.4958L15.4317 42.4117C14.7677 40.9916 13.335 40 11.6667 40C9.3693 40 7.5 41.8693 7.5 44.1667C7.5 46.464 9.3693 48.3333 11.6667 48.3333C13.964 48.3333 15.8333 46.464 15.8333 44.1667C15.8333 44.1207 15.8207 44.0776 15.8199 44.0316L19.6716 43.1185C20.9851 47.109 24.7416 50 29.1667 50C34.681 50 39.1667 45.5143 39.1667 40C39.1667 38.2902 38.7341 36.6801 37.974 35.2718L42.8691 32.089C43.6259 32.8556 44.6741 33.3333 45.8333 33.3333C48.1307 33.3333 50 31.464 50 29.1667C50 26.8693 48.1307 25 45.8333 25C43.536 25 41.6667 26.8693 41.6667 29.1667C41.6667 29.705 41.7773 30.2165 41.9641 30.6893L37.0577 33.879C36.0758 32.6168 34.801 31.5975 33.3333 30.9208L37.4007 19.6452C38.2308 19.869 39.0999 20 40 20ZM24.1667 6.66667C22.7885 6.66667 21.6667 5.54484 21.6667 4.16667C21.6667 2.78849 22.7885 1.66667 24.1667 1.66667C25.5448 1.66667 26.6667 2.78849 26.6667 4.16667C26.6667 5.54484 25.5448 6.66667 24.1667 6.66667ZM1.66667 4.16667C1.66667 2.78849 2.78849 1.66667 4.16667 1.66667C5.54484 1.66667 6.66667 2.78849 6.66667 4.16667C6.66667 5.54484 5.54484 6.66667 4.16667 6.66667C2.78849 6.66667 1.66667 5.54484 1.66667 4.16667ZM4.16667 39.1667C2.78849 39.1667 1.66667 38.0448 1.66667 36.6667C1.66667 35.2885 2.78849 34.1667 4.16667 34.1667C5.54484 34.1667 6.66667 35.2885 6.66667 36.6667C6.66667 38.0448 5.54484 39.1667 4.16667 39.1667ZM11.6667 46.6667C10.2885 46.6667 9.16667 45.5448 9.16667 44.1667C9.16667 42.7885 10.2885 41.6667 11.6667 41.6667C13.0448 41.6667 14.1667 42.7885 14.1667 44.1667C14.1667 45.5448 13.0448 46.6667 11.6667 46.6667ZM45.8333 26.6667C47.2115 26.6667 48.3333 27.7885 48.3333 29.1667C48.3333 30.5448 47.2115 31.6667 45.8333 31.6667C44.4552 31.6667 43.3333 30.5448 43.3333 29.1667C43.3333 27.7885 44.4552 26.6667 45.8333 26.6667ZM35.0924 16.72C35.4643 14.7925 37.1635 13.3333 39.1667 13.3333H40.8333C42.8365 13.3333 44.5357 14.7925 44.9076 16.72C43.5291 17.7291 41.8359 18.3333 40 18.3333C38.1641 18.3333 36.4709 17.7291 35.0924 16.72ZM40 11.6667C38.6218 11.6667 37.5 10.5448 37.5 9.16667C37.5 7.78849 38.6218 6.66667 40 6.66667C41.3782 6.66667 42.5 7.78849 42.5 9.16667C42.5 10.5448 41.3782 11.6667 40 11.6667ZM40 1.66667C44.5951 1.66667 48.3333 5.40487 48.3333 10C48.3333 12.0833 47.559 13.9868 46.2899 15.4492C45.706 13.9115 44.4885 12.6843 42.9716 12.0785C43.7093 11.3265 44.1667 10.2999 44.1667 9.16667C44.1667 6.8693 42.2974 5 40 5C37.7026 5 35.8333 6.8693 35.8333 9.16667C35.8333 10.2999 36.2907 11.3265 37.0284 12.0785C35.5115 12.6843 34.294 13.9115 33.7101 15.4492C32.441 13.9868 31.6667 12.0833 31.6667 10C31.6667 5.40487 35.4049 1.66667 40 1.66667ZM4.16667 21.6667C4.16667 17.0715 7.90487 13.3333 12.5 13.3333C17.0951 13.3333 20.8333 17.0715 20.8333 21.6667C20.8333 23.7565 20.0541 25.6649 18.7785 27.1293C18.1966 25.5859 16.9767 24.3526 15.4557 23.7451C16.1926 22.9932 16.65 21.9666 16.65 20.8333C16.65 18.536 14.7807 16.6667 12.4833 16.6667C10.186 16.6667 8.31665 18.536 8.31665 20.8333C8.31665 21.9666 8.77401 22.9932 9.51172 23.7451C7.99927 24.3481 6.78345 25.5709 6.19751 27.1025C4.93571 25.6417 4.16667 23.7443 4.16667 21.6667ZM9.98332 20.8333C9.98332 19.4552 11.1051 18.3333 12.4833 18.3333C13.8615 18.3333 14.9833 19.4552 14.9833 20.8333C14.9833 22.2115 13.8615 23.3333 12.4833 23.3333C11.1051 23.3333 9.98332 22.2115 9.98332 20.8333ZM7.57853 28.3757C7.9541 26.4534 9.65088 25 11.65 25H13.3167C15.3235 25 17.026 26.464 17.3926 28.3976C16.0168 29.4006 14.329 30 12.5 30C10.6576 30 8.95915 29.3917 7.57853 28.3757ZM24.2452 46.709C24.6208 44.7868 26.3175 43.3333 28.3166 43.3333H29.9833C31.9902 43.3333 33.6926 44.7974 34.0592 46.731C32.6835 47.734 30.9957 48.3333 29.1667 48.3333C27.3242 48.3333 25.6258 47.725 24.2452 46.709ZM29.15 41.6667C27.7718 41.6667 26.65 40.5448 26.65 39.1667C26.65 37.7885 27.7718 36.6667 29.15 36.6667C30.5282 36.6667 31.65 37.7885 31.65 39.1667C31.65 40.5448 30.5282 41.6667 29.15 41.6667ZM37.5 40C37.5 42.0898 36.7208 43.9982 35.4451 45.4626C34.8633 43.9193 33.6434 42.686 32.1224 42.0784C32.8593 41.3265 33.3166 40.2999 33.3166 39.1667C33.3166 36.8693 31.4473 35 29.15 35C26.8526 35 24.9833 36.8693 24.9833 39.1667C24.9833 40.2999 25.4407 41.3265 26.1784 42.0784C24.6659 42.6815 23.4501 43.9042 22.8642 45.4358C21.6024 43.975 20.8333 42.0776 20.8333 40C20.8333 35.4049 24.5715 31.6667 29.1667 31.6667C33.7618 31.6667 37.5 35.4049 37.5 40ZM31.7659 30.3548C30.9359 30.131 30.0667 30 29.1667 30C26.8799 30 24.7766 30.78 23.09 32.0768L19.81 28.4684C21.4734 26.6817 22.5 24.2948 22.5 21.6667C22.5 20.575 22.3185 19.5268 21.9934 18.5425L31.1584 14.6582C32.1851 16.5991 33.8326 18.1567 35.8341 19.0792L31.7659 30.3548Z" fill="white"/>
</g>
<defs>
<clipPath id="clip0_66_25">
<rect width="50" height="50" fill="white"/>
</clipPath>
</defs>
</svg>
