<svg width="50" height="50" viewBox="0 0 50 50" fill="none" xmlns="http://www.w3.org/2000/svg">
<path d="M44.7059 11.1689H5.3015C2.78681 11.1689 0.735352 13.2204 0.735352 15.7351V34.2719C0.735352 36.7866 2.78681 38.8307 5.3015 38.8307H44.7059C47.2206 38.8307 49.2648 36.7866 49.2648 34.2719V15.7351C49.2648 13.2204 47.2206 11.1689 44.7059 11.1689ZM47.7942 34.2719C47.7942 35.9778 46.4118 37.3601 44.7059 37.3601H5.3015C3.59561 37.3601 2.20594 35.9778 2.20594 34.2719V15.7351C2.20594 14.0293 3.59561 12.6395 5.3015 12.6395H44.7059C46.4118 12.6395 47.7942 14.0293 47.7942 15.7351V34.2719Z" fill="white"/>
<path d="M44.853 18.5804C43.2059 18.5804 41.8604 17.2349 41.8604 15.5878C41.8604 15.1834 41.5295 14.8525 41.1251 14.8525H8.87506C8.47066 14.8525 8.13977 15.1834 8.13977 15.5878C8.13977 17.2349 6.79421 18.5804 5.14716 18.5804C4.74271 18.5804 4.41187 18.9113 4.41187 19.3157V30.6908C4.41187 31.0952 4.74271 31.4261 5.14716 31.4261C6.79421 31.4261 8.13977 32.7643 8.13977 34.4187C8.13977 34.8231 8.47066 35.154 8.87506 35.154H41.1251C41.5295 35.154 41.8604 34.8231 41.8604 34.4187C41.8604 32.7643 43.206 31.4261 44.853 31.4261C45.2575 31.4261 45.5883 31.0952 45.5883 30.6908V19.3157C45.5883 18.9113 45.2574 18.5804 44.853 18.5804ZM44.1177 30.0143C42.2427 30.3231 40.7648 31.8084 40.4486 33.6834H9.55156C9.23539 31.8084 7.75745 30.3305 5.88245 30.0143V19.9922C7.75745 19.6761 9.23539 18.1981 9.55156 16.3231H40.4486C40.7648 18.1981 42.2427 19.6761 44.1177 19.9922V30.0143Z" fill="white"/>
<path d="M13.2083 22.1074C11.6134 22.1074 10.3159 23.405 10.3159 24.9998C10.3159 26.5974 11.6135 27.8971 13.2083 27.8971C14.8059 27.8971 16.1056 26.5974 16.1056 24.9998C16.1056 23.405 14.806 22.1074 13.2083 22.1074ZM13.2083 26.4266C12.4241 26.4266 11.7865 25.7868 11.7865 24.9998C11.7865 24.2156 12.4241 23.578 13.2083 23.578C13.9953 23.578 14.6351 24.2156 14.6351 24.9998C14.6351 25.7868 13.9953 26.4266 13.2083 26.4266Z" fill="white"/>
<path d="M36.7039 22.1074C35.1091 22.1074 33.8115 23.405 33.8115 24.9998C33.8115 26.5974 35.1091 27.8971 36.7039 27.8971C38.3016 27.8971 39.6012 26.5974 39.6012 24.9998C39.6012 23.405 38.3016 22.1074 36.7039 22.1074ZM36.7039 26.4266C35.9197 26.4266 35.2821 25.7868 35.2821 24.9998C35.2821 24.2156 35.9198 23.578 36.7039 23.578C37.4909 23.578 38.1307 24.2156 38.1307 24.9998C38.1307 25.7868 37.4909 26.4266 36.7039 26.4266Z" fill="white"/>
<path d="M29.6031 22.4482C29.6031 22.8526 29.2795 23.1835 28.8678 23.1835H27.4781C27.1325 24.9556 25.5663 26.3011 23.6913 26.3011H22.6252L25.6693 30.235C25.9119 30.5511 25.8531 31.0144 25.5369 31.2643C25.4046 31.3673 25.2428 31.4188 25.0884 31.4188C24.8678 31.4188 24.6472 31.3232 24.5001 31.132L20.5442 26.0217C20.3016 25.6982 20.3604 25.235 20.6766 24.985C20.809 24.882 20.9634 24.8305 21.1178 24.8305H21.1325H23.6913C24.7502 24.8305 25.6399 24.1394 25.9561 23.1835H21.1325C20.7208 23.1835 20.3972 22.8526 20.3972 22.4482C20.3972 22.0364 20.7208 21.7129 21.1325 21.7129H25.9561C25.6399 20.7497 24.7502 20.0585 23.6913 20.0585H21.1325C20.934 20.0585 20.7575 19.9776 20.6325 19.8526C20.4855 19.7203 20.3972 19.5364 20.3972 19.3232C20.3972 18.9188 20.7208 18.5879 21.1325 18.5879H28.8678C29.2795 18.5879 29.6031 18.9188 29.6031 19.3232C29.6031 19.7276 29.2795 20.0585 28.8678 20.0585H26.6987C27.081 20.5291 27.3531 21.0879 27.4781 21.7129H28.8678C29.2795 21.7129 29.6031 22.0364 29.6031 22.4482Z" fill="white"/>
</svg>
